<?xml version="1.0" encoding="UTF-8"?>
<!-- Generator: visioncortex VTracer 0.6.4 -->
<svg version="1.1" xmlns="http://www.w3.org/2000/svg" width="1024" height="1024">
<path d="M0 0 C1.33611328 -0.01401855 1.33611328 -0.01401855 2.69921875 -0.02832031 C10.82256991 0.01096673 17.79908014 0.94837918 24.3125 6.25 C27.79114207 11.06337284 27.9827142 15.02120185 27.87109375 20.83203125 C27.08006413 25.67224748 24.90494212 28.80950322 22.0703125 32.734375 C19.5066272 36.40329352 17.3125 40.67891664 17.3125 45.25 C17.85962646 45.28963867 18.40675293 45.32927734 18.97045898 45.37011719 C57.34512875 48.27115727 89.55096051 61.90756166 115.3125 91.25 C124.48263986 102.59111183 133.7271275 116.68624485 136.3125 131.25 C135.6525 132.24 134.9925 133.23 134.3125 134.25 C131.43782916 134.55659914 128.77629292 134.66549213 125.89781189 134.64872742 C125.01596004 134.65537424 124.13410818 134.66202107 123.22553355 134.66886932 C120.25041956 134.68761805 117.27570369 134.68488564 114.30053711 134.68237305 C112.17287118 134.69138612 110.04521046 134.70171221 107.91755676 134.71325684 C102.1087718 134.74099065 96.30008482 134.75013983 90.49124217 134.75611091 C84.37217935 134.76550861 78.25318871 134.79173991 72.13417053 134.81611633 C60.48056551 134.85994589 48.82697431 134.88836215 37.17331177 134.91143972 C24.11357266 134.93807164 11.05391294 134.98220972 -2.00577176 135.02772844 C-27.95552394 135.11733918 -53.90529875 135.19403565 -79.85518092 135.23267084 C-86.67235849 135.24326387 -93.4894885 135.26055151 -100.3066414 135.28163618 C-104.91103745 135.29495474 -109.51543569 135.30413513 -114.11984336 135.31236422 C-116.30443007 135.31714133 -118.48901373 135.32365041 -120.67358983 135.3319658 C-123.66968758 135.3431159 -126.66573497 135.34813501 -129.66184998 135.35163879 C-130.55261085 135.35643914 -131.44337172 135.36123949 -132.36112535 135.36618531 C-138.45941534 135.36404233 -138.45941534 135.36404233 -140.6875 134.25 C-138.05477791 110.58541851 -118.33195623 87.90099524 -100.40625 73.55078125 C-78.63569927 56.95406625 -53.84062798 49.45801982 -27.21679688 44.82495117 C-24.56148308 44.22135426 -22.18569576 43.32430274 -19.6875 42.25 C-19.6875 35.58809 -22.82177994 31.91797158 -26.875 26.80078125 C-29.98464415 22.42449326 -30.04777613 18.56407293 -29.6875 13.25 C-28.03307603 8.11257821 -26.4418595 4.92432722 -21.6875 2.25 C-14.70818435 -0.09880815 -7.28334067 0.05325562 0 0 Z " fill="#902121ff" transform="translate(502.6875,105.75)"/>
<path d="M0 0 C0.86158543 0.00151888 1.72317086 0.00303776 2.61086494 0.00460267 C3.60612243 -0.00336152 4.60137992 -0.01132572 5.62679672 -0.01953125 C7.27123291 -0.0020542 7.27123291 -0.0020542 8.94889003 0.01577592 C10.11118218 0.01235822 11.27347432 0.00894052 12.47098744 0.00541925 C15.70249403 -0.00004148 18.93336302 0.01250118 22.16479415 0.0325315 C25.6473916 0.04977228 29.12995821 0.0439622 32.61258632 0.0409224 C38.64820308 0.03882289 44.68364714 0.05139474 50.71922046 0.07387376 C59.44566391 0.10635359 68.17202369 0.11679664 76.89852104 0.12182572 C91.05592712 0.1305847 105.21324112 0.15721659 119.37059718 0.19503617 C133.12482426 0.23174069 146.87902635 0.26006007 160.6332925 0.27706742 C161.90457036 0.27864376 161.90457036 0.27864376 163.2015306 0.28025195 C167.45319477 0.28547202 171.70485913 0.29052687 175.9565236 0.29549956 C211.23987745 0.33698036 246.52312434 0.40744516 281.8063882 0.49679399 C283.87920372 5.19269054 285.30693839 9.19655088 286.08983546 14.31930375 C286.1914659 14.96619723 286.29309633 15.61309072 286.39780647 16.27958703 C286.73128599 18.41457306 287.05186603 20.55129484 287.37279445 22.68820024 C287.60917684 24.2128332 287.84656606 25.73731036 288.08489162 27.26164079 C288.59094192 30.50575989 289.09220869 33.75056473 289.58974391 36.99600053 C290.89920685 45.525455 292.25030248 54.04836726 293.6032632 62.57101274 C293.73850713 63.42401711 293.87375106 64.27702149 294.01309329 65.15587449 C296.51802113 80.93157133 299.20266743 96.66620181 302.1188882 112.37179399 C302.3221371 113.46806108 302.525386 114.56432817 302.73479396 115.69381547 C305.35682891 129.73939756 308.22088212 143.69488058 311.91503078 157.50216508 C312.18210841 158.51230668 312.44918605 159.52244828 312.72435695 160.56320024 C313.07663356 161.83079179 313.07663356 161.83079179 313.43602687 163.12399125 C313.86699958 165.88511434 313.58603539 167.82239675 312.8063882 170.49679399 C311.02123195 172.70773149 311.02123195 172.70773149 308.7438882 174.87179399 C307.51605617 176.04741899 307.51605617 176.04741899 306.26341945 177.24679399 C303.54388 179.73718305 300.77074946 182.1528192 297.9704507 184.55148149 C294.81186351 187.3907891 291.85228656 190.42262989 288.87767726 193.45162797 C286.25359606 196.10712167 283.57427109 198.57734358 280.6813882 200.93429399 C268.85570852 211.16712701 258.5281206 228.79664011 256.8063882 244.49679399 C256.24716297 254.92192957 255.92822946 265.25696219 258.57518703 275.41622758 C258.8063882 277.49679399 258.8063882 277.49679399 256.8063882 280.49679399 C254.3650772 280.86938947 254.3650772 280.86938947 251.21915179 280.86593747 C249.42619672 280.87489719 249.42619672 280.87489719 247.59702033 280.88403791 C246.25875735 280.87547771 244.92049612 280.8666409 243.58223659 280.85755754 C242.16982698 280.85886467 240.75741808 280.86148938 239.34501308 280.86532503 C235.45010123 280.87206021 231.555435 280.859996 227.66055447 280.84499085 C223.4655946 280.83207819 219.27064945 280.83641655 215.07567531 280.83869767 C207.80305744 280.84027344 200.53052009 280.83083263 193.25792247 280.81398416 C182.74288108 280.7896397 172.22787877 280.78179356 161.71281226 280.77802018 C144.65430116 280.77144853 127.595833 280.75146804 110.53734523 280.72311234 C93.96312867 280.69559022 77.38892377 280.67434761 60.81468898 280.66158891 C59.28314842 280.66040665 59.28314842 280.66040665 57.72066765 280.65920051 C52.59865662 280.6552855 47.47664551 280.65149435 42.35463434 280.6477648 C-0.16147746 280.61664668 -42.67754242 280.5637915 -85.1936118 280.49679399 C-86.21553964 276.65134469 -86.37940067 275.85542913 -84.45533055 272.14132524 C-83.60970355 270.8557082 -82.75064129 269.57886661 -81.8811118 268.30929399 C-80.94011504 266.86625567 -80.00272697 265.42085893 -79.0686118 263.97335649 C-78.34544774 262.85815629 -78.34544774 262.85815629 -77.6076743 261.7204268 C-37.14130356 198.08649988 -24.90559645 123.41254725 -13.10083836 50.37716508 C-11.81377804 42.41447525 -10.50936622 34.45479579 -9.1936118 26.49679399 C-8.9110352 24.7713939 -8.9110352 24.7713939 -8.62274998 23.01113725 C-8.11056381 19.90904584 -7.58293843 16.81006254 -7.04908055 13.71163774 C-6.9038445 12.82077973 -6.75860844 11.92992173 -6.6089713 11.01206803 C-6.39406293 9.79589044 -6.39406293 9.79589044 -6.17481297 8.55514359 C-6.05675801 7.86166322 -5.93870305 7.16818284 -5.81707066 6.45368791 C-4.76728096 3.15863958 -3.50545852 0.79389193 0 0 Z M4.8063882 17.49679399 C3.0621195 23.58437565 3.0621195 23.58437565 2.04784328 29.6579268 C1.93016597 30.62134492 1.81248866 31.58476304 1.69124538 32.57737565 C1.57068782 33.60781495 1.45013026 34.63825425 1.32591945 35.69991899 C1.05012957 37.96192252 0.77399188 40.22388367 0.49755031 42.48580766 C0.35461543 43.67000291 0.21168056 44.85419816 0.06441432 46.07427812 C-8.95398213 120.41381147 -22.27662205 194.23289046 -60.1467368 259.99044633 C-62.3926838 263.51522404 -62.3926838 263.51522404 -63.1936118 267.49679399 C-53.84830516 267.52004994 -44.50300861 267.53777627 -35.15767926 267.54860616 C-30.81743277 267.55380613 -26.4772062 267.5608509 -22.13697118 267.57223344 C-17.94186906 267.58316546 -13.746786 267.58909251 -9.55167073 267.59167123 C-7.95784902 267.593507 -6.36402825 267.59709149 -4.77021474 267.60252404 C5.46550212 267.64281377 5.46550212 267.64281377 15.69090968 267.24777055 C16.43372691 267.20355973 17.17654414 267.15934892 17.94187099 267.11379838 C20.59607838 266.23547041 21.27151117 264.78010098 22.59935695 262.38351274 C23.38506052 260.44076343 24.11598439 258.47541662 24.8063882 256.49679399 C25.22742824 255.36966996 25.64846828 254.24254594 26.08226711 253.08126664 C27.49712652 249.17761839 28.82401132 245.25392554 30.1188882 241.30929399 C30.35627712 240.58993669 30.59366603 239.87057939 30.83824855 239.12942338 C49.03191953 183.76590331 54.71034105 126.81110906 59.1188882 68.99679399 C59.18682204 68.10871049 59.25475589 67.22062699 59.32474834 66.30563188 C59.72023743 61.12736317 60.10964663 55.94869246 60.49056941 50.76933122 C60.60826883 49.17320178 60.72715497 47.57715933 60.84733516 45.98121476 C61.01397285 43.75947255 61.17519334 41.5373995 61.33495265 39.31515336 C61.42646098 38.06585038 61.51796932 36.8165474 61.61225063 35.52938676 C61.85322529 30.52390181 61.8063882 25.50807609 61.8063882 20.49679399 C33.5913882 19.01179399 33.5913882 19.01179399 4.8063882 17.49679399 Z " fill="#902121ff" transform="translate(360.1936118006706,260.5032060146332)"/>
<path d="M0 0 C3.83171902 0.18886175 6.51701346 0.86785508 10.09057617 2.20825195 C11.27925293 2.6484668 12.46792969 3.08868164 13.69262695 3.54223633 C14.96740176 4.02804525 16.24197409 4.51438577 17.51635742 5.0012207 C18.83755494 5.49734117 20.15901094 5.99277379 21.48071289 6.48754883 C24.91323455 7.77726677 28.33911713 9.08369429 31.76275635 10.39678955 C33.80835436 11.18086193 35.85531701 11.96127422 37.90258789 12.7409668 C41.7578465 14.21122161 45.60666812 15.69746986 49.45385742 17.1887207 C50.63810303 17.64480713 51.82234863 18.10089355 53.04248047 18.57080078 C54.13987549 19.00158936 55.23727051 19.43237793 56.36791992 19.8762207 C57.32907715 20.25133789 58.29023437 20.62645508 59.28051758 21.01293945 C61.79657919 22.17382781 63.76290767 23.34509801 65.82885742 25.1887207 C66.64967392 28.4472633 66.24179657 30.41795855 64.66186523 33.36694336 C62.99346651 35.96451671 61.2408825 38.48381638 59.45385742 41.0012207 C58.15514771 42.89490661 56.85960125 44.79076557 55.56713867 46.6887207 C54.92728027 47.62458008 54.28742188 48.56043945 53.62817383 49.5246582 C47.06178895 59.24682805 41.58683296 69.36675688 36.71166992 80.0324707 C36.23688705 81.07063431 35.76210419 82.10879791 35.27293396 83.17842102 C30.26057959 94.26354574 25.74262891 105.53481438 21.28158569 116.85067749 C18.90192776 122.88536046 16.50015441 128.91125276 14.10229492 134.9387207 C13.63879135 136.10553879 13.17528778 137.27235687 12.69773865 138.47453308 C5.15717725 157.4478892 -2.5316792 176.35846195 -11.11206055 194.88989258 C-12.17950043 197.20686214 -13.22485661 199.53295884 -14.26879883 201.8605957 C-24.10742798 223.53214031 -37.04619722 251.66001293 -60.29614258 261.6887207 C-74.37822464 266.13151842 -90.07601615 263.00941998 -102.98364258 256.5012207 C-114.81364039 249.47001844 -123.66710256 239.56292987 -127.66333008 226.2590332 C-131.50172157 210.61020635 -129.15138447 195.83779572 -120.98681641 181.95629883 C-115.25043693 173.21250459 -107.06960719 165.92677065 -99.67773438 158.56494141 C-98.10340103 156.9959971 -96.53452668 155.42173512 -94.96606445 153.84692383 C-90.05139961 148.92950307 -85.08370744 144.13497053 -79.80078125 139.609375 C-66.98035832 128.43303927 -57.43795608 112.8917949 -49.17114258 98.1887207 C-48.66744141 97.29878418 -48.16374023 96.40884766 -47.64477539 95.49194336 C-34.19343524 71.57271151 -23.09269854 46.72187578 -13.16479492 21.15844727 C-5.03240453 0.29948793 -5.03240453 0.29948793 0 0 Z " fill="#902121ff" transform="translate(761.171142578125,304.811279296875)"/>
<path d="M0 0 C28.68098688 -1.262786 53.61815219 7.88078987 74.99951172 27.10717773 C75.76650391 27.79166992 76.53349609 28.47616211 77.32373047 29.18139648 C101.36428745 51.87937437 114.15549863 86.27579512 115.22607422 118.79858398 C116.10088472 162.01282857 100.26401248 201.74140385 70.47680664 232.97949219 C47.86819675 255.97668172 16.14601158 272.09804073 -16.41748047 272.48632812 C-18.28388184 272.48427368 -18.28388184 272.48427368 -20.18798828 272.48217773 C-22.14526855 272.48302368 -22.14526855 272.48302368 -24.14208984 272.48388672 C-34.59423424 272.40530815 -44.59181306 271.10825232 -54.82861328 269.07983398 C-56.55145225 268.74971883 -58.27541589 268.42541565 -60.00048828 268.10717773 C-60.88921631 267.94169434 -61.77794434 267.77621094 -62.69360352 267.60571289 C-68.06517694 266.80047902 -68.06517694 266.80047902 -73.00439453 268.81030273 C-73.84873047 269.65077148 -74.69306641 270.49124023 -75.56298828 271.35717773 C-76.56987352 272.29362451 -77.58465033 273.22163692 -78.60595703 274.14233398 C-79.41492432 274.87347412 -79.41492432 274.87347412 -80.24023438 275.61938477 C-83.41925389 278.30633968 -86.88104583 280.54285317 -90.37548828 282.79467773 C-91.02203369 283.22103516 -91.6685791 283.64739258 -92.3347168 284.08666992 C-93.68697908 284.95288306 -95.05985051 285.7876159 -96.44973278 286.59208202 C-99.03631927 288.08386111 -99.03631927 288.08386111 -101.51147175 289.87566853 C-113.28437798 297.15527491 -126.11807373 296.08969222 -139.54069602 295.97827327 C-143.14894119 295.95607028 -146.75702267 295.97466814 -150.36528015 295.98789978 C-157.41786947 296.00738055 -164.46988777 295.9896865 -171.52241793 295.95893624 C-179.75501014 295.92436507 -187.987477 295.92633589 -196.22012649 295.92941473 C-210.92429439 295.93359799 -225.62819625 295.90370694 -240.33227539 295.85498047 C-254.56052824 295.80785112 -268.78851522 295.78654669 -283.0168457 295.79345703 C-301.03402088 295.80215075 -319.05103458 295.7878334 -337.06818103 295.75470465 C-342.78917706 295.74484772 -348.51014261 295.74305588 -354.23114586 295.74405479 C-361.21943921 295.74481741 -368.2075249 295.73040991 -375.19574466 295.69777562 C-378.75262003 295.68145548 -382.30921467 295.67103328 -385.86612701 295.6782074 C-418.74778744 295.73395838 -443.96024487 289.14415207 -469.00048828 267.10717773 C-469.82806641 266.38916992 -470.65564453 265.67116211 -471.50830078 264.93139648 C-504.35105463 235.94946794 -526.78257973 197.82385784 -533.00048828 154.10717773 C-533.09330078 153.47303955 -533.18611328 152.83890137 -533.28173828 152.18554688 C-535.73046558 133.39812393 -535.17236565 112.58098831 -531.00048828 94.10717773 C-530.72640137 92.88490479 -530.72640137 92.88490479 -530.44677734 91.63793945 C-525.88330659 72.18886172 -517.22666836 42.21504218 -501.01627541 29.16120589 C-496.61281894 26.85869734 -491.49566918 27.42389501 -486.64575195 27.46794128 C-485.38832341 27.45958561 -484.13089487 27.45122993 -482.83536243 27.44262105 C-479.35006025 27.42013391 -475.86542094 27.42867437 -472.38009834 27.44230664 C-468.61629655 27.45157687 -464.85263085 27.43201545 -461.08886719 27.41598511 C-454.55743446 27.39211882 -448.02619046 27.3865452 -441.49472046 27.39333153 C-431.99260074 27.40317301 -422.49068761 27.38531663 -412.98860133 27.36096422 C-397.49386122 27.32201088 -381.99918022 27.30541042 -366.50439453 27.30273438 C-351.58769622 27.30011111 -336.67106876 27.2872006 -321.75439453 27.25976562 C-320.84261204 27.25809225 -319.93082955 27.25641887 -318.99141729 27.25469478 C-314.40939515 27.24622312 -309.82737341 27.23755312 -305.24535179 27.22880208 C-282.54484823 27.18568528 -259.84433718 27.14921066 -237.14379883 27.13139343 C-236.33812812 27.130724 -235.53245741 27.13005456 -234.70237243 27.12936484 C-226.10314456 27.12233855 -217.50393852 27.11888115 -208.90470886 27.12398052 C-205.94493617 27.12538482 -202.98516353 27.12645706 -200.02539062 27.12728882 C-199.30708985 27.12753418 -198.58878908 27.12777954 -197.84872162 27.12803233 C-188.77039708 27.12953471 -179.69348111 27.09045311 -170.61558437 27.00212234 C-165.5263796 26.95371105 -160.43712151 26.91876078 -155.34780312 26.88470137 C-153.01599086 26.86483912 -150.68422676 26.83778949 -148.35259056 26.80292547 C-145.19773853 26.75581762 -142.04356029 26.73278585 -138.88842773 26.71504211 C-137.97925661 26.69453423 -137.07008549 26.67402634 -136.13336372 26.652897 C-128.80401062 26.65145687 -124.38322176 28.72705005 -119.06298828 33.85717773 C-103.73535266 47.33728585 -82.96286106 50.29382471 -63.37011719 49.28295898 C-51.41146793 48.39585539 -40.27025765 42.39472081 -32.11767578 33.65014648 C-26.09209601 26.41278037 -20.46407455 18.81418781 -15.21923828 10.99389648 C-14.7807959 10.34952637 -14.34235352 9.70515625 -13.890625 9.04125977 C-13.06863586 7.82524881 -12.26194526 6.59870405 -11.47363281 5.3605957 C-9.62677718 2.63413185 -8.44515169 1.24756433 -5.26611328 0.24389648 C-3.51039855 0.17039168 -1.75473617 0.09401137 0 0 Z M-498.21679688 47.38916016 C-499.21403582 49.59849209 -500.14900216 51.83768341 -501.00048828 54.10717773 C-501.82632717 55.70389413 -502.66772061 57.29291349 -503.53955078 58.86499023 C-504.24639931 60.315153 -504.94175023 61.77097646 -505.62548828 63.23217773 C-505.99883301 64.02785156 -506.37217773 64.82352539 -506.75683594 65.64331055 C-523.99217868 103.437902 -524.16778333 146.2586353 -510.25048828 185.11108398 C-495.56581031 224.3017645 -466.68853354 256.82086675 -430.02851868 276.97268677 C-428.65235974 277.74251738 -427.29600283 278.54863674 -425.95982361 279.38594055 C-418.51488768 283.68937028 -411.91407615 283.76266667 -403.46142578 283.59545898 C-402.08567604 283.58611124 -400.70990943 283.57900442 -399.33413696 283.57402039 C-395.74660732 283.55510389 -392.1601209 283.506142 -388.57299805 283.45050049 C-384.89923203 283.39897144 -381.22529425 283.37643528 -377.55126953 283.35131836 C-370.36720476 283.29800291 -363.18399374 283.21288379 -356.00048828 283.10717773 C-356.95017843 281.99412818 -357.90059715 280.88170024 -358.85131836 279.76953125 C-359.64509636 278.84020531 -359.64509636 278.84020531 -360.45491028 277.8921051 C-362.47705029 275.55681497 -364.58022492 273.30274001 -366.68798828 271.04467773 C-379.67708897 256.78787202 -390.86846748 241.09887257 -400.00048828 224.10717773 C-400.33435547 223.49003906 -400.66822266 222.87290039 -401.01220703 222.23706055 C-423.40663932 180.42983016 -426.84489354 133.18641314 -413.49194336 87.91015625 C-409.04186961 73.48204348 -403.93500102 59.35837766 -397.25048828 45.81030273 C-395.86058045 43.3009856 -395.86058045 43.3009856 -396.00048828 41.10717773 C-408.5088753 40.8056295 -421.01639475 40.57481715 -433.52767944 40.4336195 C-439.33779487 40.36583964 -445.1454198 40.27396388 -450.95410156 40.12646484 C-456.56292039 39.98493647 -462.16934886 39.90743185 -467.77981567 39.87377357 C-469.91714119 39.84979866 -472.05433927 39.80297367 -474.19064331 39.732687 C-488.37189268 38.75386903 -488.37189268 38.75386903 -498.21679688 47.38916016 Z M-26.00048828 54.10717773 C-24.66199067 58.78017817 -23.25631196 63.42031982 -21.64111328 68.00561523 C-18.72053998 76.34504897 -16.22701206 84.67829279 -14.25048828 93.29467773 C-14.05213379 94.14771484 -13.8537793 95.00075195 -13.64941406 95.87963867 C-10.75304636 108.98638387 -9.56050505 122.08707969 -9.56298828 135.48217773 C-9.56088852 136.58053452 -9.56088852 136.58053452 -9.55874634 137.70108032 C-9.58040571 151.60583398 -11.37850939 164.65448768 -15.00048828 178.10717773 C-15.17676758 178.80149902 -15.35304688 179.49582031 -15.53466797 180.21118164 C-19.49404571 195.45992286 -27.23903208 211.51757397 -36.11767578 224.48828125 C-37.23986796 226.23882437 -37.23986796 226.23882437 -37.00048828 229.10717773 C-20.20846538 234.74208475 -1.37952751 231.032861 14.18701172 223.48217773 C39.10090978 210.67743819 57.3379307 187.53678291 66.31201172 161.23217773 C75.01479923 134.11876133 74.87246815 104.15214148 62.08837891 78.26196289 C53.63755723 62.44409573 40.32106899 48.99266082 23.15966797 43.13842773 C6.27300572 38.34536723 -13.54854082 40.76168775 -26.00048828 54.10717773 Z " fill="#902121ff" transform="translate(759.00048828125,533.892822265625)"/>
<path d="M0 0 C1.04864302 -0.00384115 2.09728604 -0.00768229 3.17770612 -0.01163983 C4.34392236 -0.01077335 5.5101386 -0.00990687 6.71169472 -0.00901413 C7.93958171 -0.01198525 9.16746869 -0.01495637 10.43256438 -0.01801753 C13.85640228 -0.02522131 17.28019003 -0.02787866 20.70403194 -0.028615 C24.39054684 -0.03046067 28.07705076 -0.03800551 31.76355934 -0.04475021 C39.83162456 -0.05835403 47.89968483 -0.06436142 55.96775961 -0.06876087 C61.00162391 -0.07151982 66.03548629 -0.07575652 71.06934929 -0.08026505 C84.99549107 -0.09246034 98.92163131 -0.10275917 112.84777832 -0.10614014 C114.18572009 -0.10646949 114.18572009 -0.10646949 115.55069099 -0.10680549 C116.89190829 -0.10713291 116.89190829 -0.10713291 118.26022089 -0.10746694 C120.07222136 -0.10791041 121.88422183 -0.10835697 123.69622231 -0.10880661 C124.59504492 -0.10902804 125.49386753 -0.10924947 126.41992719 -0.10947761 C140.99017738 -0.11342718 155.56037761 -0.13088489 170.13060848 -0.15416613 C185.07507063 -0.1778534 200.01950767 -0.19034079 214.9639889 -0.19150805 C223.36065555 -0.19242629 231.7572571 -0.19821586 240.15390587 -0.21632767 C247.30283445 -0.2316933 254.45167783 -0.23687014 261.60061978 -0.22858956 C265.25059286 -0.22467044 268.90039419 -0.22567364 272.55034637 -0.23964691 C276.50142109 -0.25463515 280.45225126 -0.24655672 284.40334511 -0.23606491 C286.1459773 -0.24814952 286.1459773 -0.24814952 287.92381418 -0.26047826 C288.97767269 -0.25388841 290.03153121 -0.24729857 291.11732483 -0.24050903 C292.48635281 -0.24140467 292.48635281 -0.24140467 293.88303792 -0.24231839 C296.65798919 0.20831939 297.4782505 0.9439262 299.18450356 3.13142776 C300.17872548 4.86574626 301.11007854 6.63673867 301.99700356 8.42830276 C302.51520668 9.46986526 303.03340981 10.51142776 303.56731606 11.58455276 C304.10098793 12.67252151 304.63465981 13.76049026 305.18450356 14.88142776 C305.71817543 15.95392776 306.25184731 17.02642776 306.80169106 18.13142776 C314.94225788 34.57456274 314.94225788 34.57456274 314.18450356 40.13142776 C313.00554746 41.77953297 313.00554746 41.77953297 311.18450356 43.13142776 C308.70054108 43.50862592 308.70054108 43.50862592 305.67280102 43.5117445 C304.51977413 43.52018444 303.36674724 43.52862438 302.17878014 43.53732008 C300.9062342 43.53131003 299.63368827 43.52529999 298.32258034 43.51910782 C296.96165334 43.52327837 295.60072982 43.52875434 294.23981279 43.53542763 C290.49172509 43.54993783 286.74385623 43.54562027 282.99575627 43.53826082 C278.95681869 43.53354514 274.91792956 43.54602476 270.87900734 43.55627823 C262.9631788 43.57350315 255.04742951 43.5742986 247.1315871 43.56906532 C240.69957108 43.56502923 234.26757855 43.5664605 227.83556366 43.57181358 C226.92125581 43.57256201 226.00694796 43.57331043 225.06493382 43.57408153 C223.20771134 43.57561295 221.35048886 43.5771513 219.4932664 43.5786965 C202.06363114 43.59243491 184.63404073 43.58697445 167.20440649 43.57551128 C151.24786758 43.56557758 135.2914446 43.57851956 119.33492357 43.60244548 C102.96317753 43.62680964 86.59148555 43.63645096 70.21972173 43.62979275 C61.02324105 43.62629454 51.82684956 43.62857215 42.63038254 43.64604378 C34.80151612 43.66073228 26.9728017 43.66144529 19.14393837 43.64397287 C15.14747588 43.63543267 11.1512853 43.63338637 7.15483665 43.64862442 C3.49874928 43.66239243 -0.15683124 43.65781133 -3.81288869 43.63838518 C-5.76727653 43.63280263 -7.72168967 43.64696229 -9.67602962 43.66173929 C-10.83166426 43.651925 -11.9872989 43.64211071 -13.17795277 43.63199902 C-14.17726934 43.63189168 -15.17658591 43.63178434 -16.2061848 43.63167375 C-19.54942427 42.99072228 -20.76459833 41.80171072 -22.81549644 39.13142776 C-22.76658662 34.14262515 -20.52916514 30.08495889 -18.25299644 25.75642776 C-17.53132515 24.35164272 -16.80998122 22.94668946 -16.08893394 21.54158401 C-15.71607262 20.82115921 -15.34321129 20.10073441 -14.95905113 19.35847855 C-12.70241192 14.96371704 -10.52960972 10.52648095 -8.34259605 6.0967598 C-5.31170896 0.00725703 -5.31170896 0.00725703 0 0 Z " fill="#902121ff" transform="translate(342.81549644470215,844.8685722351074)"/>
</svg>
